<svg width="16" height="16" viewBox="0 0 16 16" xmlns="http://www.w3.org/2000/svg">
  <path d="M12.146.146a.5.5 0 0 1 .708 0l3 3a.5.5 0 0 1 0 .708L8.5 11.207l-3 1a.5.5 0 0 1-.604-.604l1-3L13.25.25a.5.5 0 0 1 .354-.146l-.458.042zM11.207 2.5L13.5 4.793 14.793 3.5 12.5 1.207 11.207 2.5zm1.586 3L10.5 3.207 4 9.707V10h.5a.5.5 0 0 1 .5.5v.5h.5a.5.5 0 0 1 .5.5v.5h.293l6.5-6.5z" fill="currentColor"/>
  <path d="M9.5 13.5a.5.5 0 0 1-.5.5h-8a.5.5 0 0 1-.5-.5v-8a.5.5 0 0 1 .5-.5h2a.5.5 0 0 1 0 1H1v7h7v-2a.5.5 0 0 1 1 0v2z" fill="currentColor"/>
</svg>
