<svg width="16" height="16" viewBox="0 0 16 16" xmlns="http://www.w3.org/2000/svg">
  <path d="M.54 3.87L.5 3a2 2 0 0 1 2-2h3.672a2 2 0 0 1 1.414.586l.828.828A2 2 0 0 0 9.828 3h4.672a2 2 0 0 1 2 2l-.04.87a1.99 1.99 0 0 1-.342 1.311l-1.446 2.169a1 1 0 0 1-.831.447H1.659a1 1 0 0 1-.831-.447L.382 7.181A1.99 1.99 0 0 1 .04 5.87L.54 3.87zM2.5 2a1 1 0 0 0-1 1l.04.87a.99.99 0 0 0 .171.656L3.157 6.34a.5.5 0 0 0 .415.224h8.856a.5.5 0 0 0 .415-.224l1.446-2.169a.99.99 0 0 0 .171-.656L14.5 3a1 1 0 0 0-1-1H9.828a1 1 0 0 1-.707-.293l-.828-.828A1 1 0 0 0 7.586 1H2.5z" fill="currentColor"/>
  <path d="M1.5 7.5v6a1 1 0 0 0 1 1h11a1 1 0 0 0 1-1v-6H1.5z" fill="currentColor"/>
</svg>
